<svg width="221" height="215" viewBox="0 0 221 215" fill="none" xmlns="http://www.w3.org/2000/svg">
<path d="M140.3 48.3528H80.75C79.393 48.3544 78.092 48.8924 77.1325 49.8488C76.1729 50.8051 75.6331 52.1017 75.6314 53.4542V185.361L74.9489 185.568L60.3404 190.027C59.6481 190.237 58.9003 190.165 58.2611 189.827C57.622 189.488 57.1438 188.91 56.9315 188.221L13.4778 46.7577C13.2663 46.0677 13.3384 45.3222 13.6781 44.6851C14.0179 44.0481 14.5976 43.5715 15.2898 43.3602L37.8015 36.4902L103.064 16.581L125.575 9.71103C125.918 9.60595 126.278 9.56922 126.635 9.60297C126.992 9.63671 127.338 9.74026 127.655 9.90768C127.972 10.0751 128.252 10.3031 128.48 10.5787C128.708 10.8542 128.88 11.1719 128.984 11.5135L140.092 47.6726L140.3 48.3528Z" fill="#F2F2F2"/>
<path d="M153.295 47.6733L139.908 4.09331C139.685 3.36719 139.321 2.69192 138.837 2.1061C138.352 1.52027 137.756 1.03537 137.083 0.679109C136.411 0.322844 135.674 0.102191 134.916 0.029768C134.157 -0.0426551 133.392 0.0345707 132.664 0.257025L101.014 9.91236L35.7547 29.825L4.10462 39.4837C2.63432 39.9337 1.40322 40.9467 0.681545 42.3004C-0.0401322 43.654 -0.193426 45.2378 0.255316 46.704L46.0089 195.642C46.3735 196.826 47.109 197.862 48.1076 198.598C49.1063 199.335 50.3154 199.733 51.5576 199.734C52.1325 199.734 52.7042 199.648 53.2535 199.479L74.9496 192.86L75.6321 192.65V191.939L74.9496 192.146L53.0522 198.829C51.7544 199.223 50.3527 199.089 49.1545 198.454C47.9563 197.82 47.0595 196.738 46.6608 195.445L0.910639 46.5033C0.713091 45.8629 0.644241 45.1899 0.708027 44.5229C0.771814 43.8559 0.96698 43.208 1.28236 42.6163C1.59774 42.0246 2.02715 41.5008 2.54597 41.0747C3.06479 40.6486 3.66284 40.3287 4.30589 40.1333L35.956 30.4746L101.215 10.5653L132.865 0.906615C133.353 0.758265 133.86 0.682624 134.37 0.68215C135.464 0.684599 136.529 1.03624 137.408 1.68558C138.288 2.33491 138.935 3.24782 139.257 4.29057L152.582 47.6733L152.794 48.3535H153.503L153.295 47.6733Z" fill="#3F3D56"/>
<path d="M41.8637 43.4714C41.206 43.471 40.5658 43.2604 40.0369 42.8708C39.5081 42.4811 39.1184 41.9327 38.9252 41.3061L34.5299 26.9977C34.4118 26.6133 34.3708 26.2096 34.4093 25.8094C34.4478 25.4093 34.565 25.0206 34.7542 24.6656C34.9434 24.3107 35.2009 23.9963 35.5121 23.7405C35.8232 23.4847 36.1818 23.2925 36.5675 23.1749L96.6051 4.85606C97.384 4.61919 98.2253 4.69998 98.9444 5.08068C99.6635 5.46138 100.202 6.1109 100.441 6.88667L104.836 21.1953C105.074 21.9715 104.993 22.81 104.611 23.5266C104.229 24.2433 103.577 24.7798 102.799 25.0182L42.761 43.3371C42.4703 43.426 42.1679 43.4713 41.8637 43.4714V43.4714Z" fill="#1A1A1A"/>
<path d="M64.8881 15.2889C68.6573 15.2889 71.7129 12.2436 71.7129 8.48699C71.7129 4.73038 68.6573 1.68506 64.8881 1.68506C61.1188 1.68506 58.0632 4.73038 58.0632 8.48699C58.0632 12.2436 61.1188 15.2889 64.8881 15.2889Z" fill="#1A1A1A"/>
<path d="M64.8883 12.7941C67.2751 12.7941 69.21 10.8657 69.21 8.48688C69.21 6.10808 67.2751 4.17969 64.8883 4.17969C62.5015 4.17969 60.5667 6.10808 60.5667 8.48688C60.5667 10.8657 62.5015 12.7941 64.8883 12.7941Z" fill="white"/>
<path d="M205.644 197.995H90.3048C89.5358 197.994 88.7986 197.69 88.2548 197.148C87.7111 196.606 87.4052 195.871 87.4043 195.104V57.3654C87.4052 56.599 87.711 55.8642 88.2548 55.3223C88.7986 54.7803 89.5358 54.4755 90.3048 54.4746H205.644C206.413 54.4755 207.151 54.7803 207.694 55.3223C208.238 55.8642 208.544 56.599 208.545 57.3654V195.104C208.544 195.871 208.238 196.606 207.694 197.148C207.151 197.689 206.413 197.994 205.644 197.995V197.995Z" fill="#E6E6E6"/>
<path d="M152.581 47.6724H80.7501C79.2122 47.6745 77.7379 48.2844 76.6505 49.3682C75.563 50.452 74.9512 51.9213 74.949 53.454V192.145L75.6315 191.938V53.454C75.6331 52.1015 76.1729 50.8049 77.1325 49.8486C78.0921 48.8922 79.393 48.3542 80.7501 48.3526H152.793L152.581 47.6724ZM215.199 47.6724H80.7501C79.2122 47.6745 77.7379 48.2844 76.6505 49.3682C75.563 50.452 74.9512 51.9213 74.949 53.454V209.218C74.9512 210.751 75.563 212.22 76.6505 213.304C77.7379 214.388 79.2122 214.998 80.7501 215H215.199C216.737 214.998 218.211 214.388 219.299 213.304C220.386 212.22 220.998 210.751 221 209.218V53.454C220.998 51.9213 220.386 50.452 219.299 49.3682C218.211 48.2844 216.737 47.6745 215.199 47.6724V47.6724ZM220.318 209.218C220.316 210.571 219.776 211.867 218.817 212.824C217.857 213.78 216.556 214.318 215.199 214.32H80.7501C79.393 214.318 78.0921 213.78 77.1325 212.824C76.1729 211.867 75.6331 210.571 75.6315 209.218V53.454C75.6331 52.1015 76.1729 50.8049 77.1325 49.8486C78.0921 48.8922 79.393 48.3542 80.7501 48.3526H215.199C216.556 48.3542 217.857 48.8922 218.817 49.8486C219.776 50.8049 220.316 52.1015 220.318 53.454V209.218Z" fill="#3F3D56"/>
<path d="M179.369 62.6368H116.58C115.766 62.6358 114.986 62.3131 114.41 61.7392C113.834 61.1654 113.51 60.3874 113.509 59.5759V44.6116C113.51 43.8001 113.834 43.0221 114.41 42.4483C114.986 41.8745 115.766 41.5517 116.58 41.5508H179.369C180.183 41.5517 180.964 41.8745 181.539 42.4483C182.115 43.0221 182.439 43.8001 182.44 44.6116V59.5759C182.439 60.3874 182.115 61.1654 181.539 61.7392C180.964 62.3131 180.183 62.6358 179.369 62.6368V62.6368Z" fill="#1A1A1A"/>
<path d="M147.974 42.5711C151.744 42.5711 154.799 39.5258 154.799 35.7692C154.799 32.0126 151.744 28.9673 147.974 28.9673C144.205 28.9673 141.15 32.0126 141.15 35.7692C141.15 39.5258 144.205 42.5711 147.974 42.5711Z" fill="#1A1A1A"/>
<path d="M147.974 39.912C150.27 39.912 152.131 38.0571 152.131 35.769C152.131 33.4809 150.27 31.626 147.974 31.626C145.679 31.626 143.817 33.4809 143.817 35.769C143.817 38.0571 145.679 39.912 147.974 39.912Z" fill="white"/>
</svg>
